<?xml version="1.0" encoding="UTF-8"?>
<svg version="1.1" xmlns="http://www.w3.org/2000/svg" width="252" height="244">
<path d="M0 0 C83.16 0 166.32 0 252 0 C252 80.52 252 161.04 252 244 C168.84 244 85.68 244 0 244 C0 163.48 0 82.96 0 0 Z " fill="#FECB00" transform="translate(0,0)"/>
<path d="M0 0 C1.11030579 0.01110306 2.22061157 0.02220612 3.36456299 0.03364563 C5.25607086 0.03421211 5.25607086 0.03421211 7.18579102 0.03479004 C8.55691519 0.06032134 9.92802925 0.08640129 11.2991333 0.11299133 C12.70587914 0.12232109 14.11264126 0.12943644 15.51940918 0.13442993 C19.21550641 0.15348768 22.91061548 0.20257557 26.60632324 0.25794983 C30.3800927 0.30917013 34.15402241 0.33194976 37.92803955 0.35713196 C45.32822881 0.41069752 52.72760491 0.49599296 60.1272583 0.60127258 C55.94982611 5.58344049 51.60056065 10.27101588 46.99656677 14.85894775 C46.30202544 15.55504908 45.60748411 16.2511504 44.89189607 16.9683457 C42.57972929 19.2844797 40.26403043 21.59704842 37.94830322 23.90962219 C36.2838301 25.57545118 34.6195696 27.24149265 32.95550537 28.9077301 C28.44794317 33.41984247 23.93723418 37.92879656 19.42580962 42.43704677 C15.18533904 46.67524067 10.94687658 50.91544166 6.70827702 55.15550656 C-2.19059857 64.05722896 -11.09252873 72.95589164 -19.99551716 81.85350037 C-27.64017133 89.49367842 -35.28218755 97.13648684 -42.92230225 104.78120422 C-51.79829632 113.66254303 -60.67590135 122.54226638 -69.55610579 131.41939551 C-74.25588311 136.11758948 -78.95495351 140.81648613 -83.65229225 145.51711845 C-88.06179388 149.92949614 -92.47371036 154.33944454 -96.88755035 158.7474823 C-98.5118552 160.3704586 -100.13529805 161.99429811 -101.75784111 163.61903572 C-103.9619248 165.8258269 -106.16902471 168.02955476 -108.37696838 170.23248291 C-109.35281544 171.21167605 -109.35281544 171.21167605 -110.34837657 172.21065086 C-114.75859118 176.60127258 -114.75859118 176.60127258 -115.8727417 176.60127258 C-119.90696676 154.90760116 -124.38574921 126.3318822 -111.43060303 106.78700256 C-105.79813136 98.80222467 -99.09163162 91.74569542 -92.1696167 84.87861633 C-91.57517321 84.28880745 -90.98072971 83.69899858 -90.36827278 83.0913167 C-82.96275766 75.79550491 -75.30976681 68.7897853 -67.55225801 61.87168086 C-60.87728064 55.90724141 -54.38376352 49.75847098 -47.89706564 43.59075916 C-39.9737365 36.05969317 -32.02775706 28.55598738 -23.94470215 21.19622803 C-23.37910945 20.68123564 -22.81351676 20.16624325 -22.23078489 19.63564503 C-19.58942379 17.23396621 -16.94242962 14.83883103 -14.28770447 12.45193481 C-13.36506302 11.61751862 -12.44242157 10.78310242 -11.49182129 9.92340088 C-10.69170498 9.20473311 -9.89158867 8.48606535 -9.06722641 7.74561977 C-6.7737186 5.60400424 -6.7737186 5.60400424 -4.76359558 2.8687191 C-2.8727417 0.60127258 -2.8727417 0.60127258 0 0 Z " fill="#343332" transform="translate(153.87274169921875,29.398727416992188)"/>
<path d="M0 0 C4.17074586 1.63786818 6.96319939 4.68904437 10.05371094 7.81079102 C10.64926285 8.40444458 11.24481476 8.99809814 11.8584137 9.60974121 C13.82198483 11.56961296 15.77827261 13.53658227 17.734375 15.50390625 C19.09592842 16.86665172 20.45785165 18.2290278 21.82012939 19.59104919 C24.67111921 22.44360227 27.51871925 25.2994822 30.36376953 28.15795898 C34.01968631 31.83090564 37.68219197 35.49719454 41.34701157 39.16125584 C44.15759296 41.9721084 46.96556635 44.78555378 49.77265167 47.59989738 C51.12292329 48.95336122 52.47381031 50.30621138 53.82530975 51.65844917 C55.70736579 53.54266064 57.58609929 55.43011984 59.46386719 57.31860352 C60.02797806 57.8822612 60.59208893 58.44591888 61.17329407 59.0266571 C65 62.88552342 65 62.88552342 65 64 C23.09 64 -18.82 64 -62 64 C-61.01 62.35 -60.02 60.7 -59 59 C-58.34 59 -57.68 59 -57 59 C-57 58.34 -57 57.68 -57 57 C-54.38277659 54.14484719 -51.60443053 51.65578669 -48.625 49.1875 C-45.24645479 46.34511522 -42.46947949 43.16405362 -39.6171875 39.8046875 C-37.62034948 37.57633203 -35.33420913 35.86736731 -33 34 C-31.20228063 31.96992234 -29.46166885 29.90458312 -27.74609375 27.8046875 C-25.94144197 25.93947694 -24.37302283 25.00736637 -22 24 C-22 23.34 -22 22.68 -22 22 C-20.71484375 20.7734375 -20.71484375 20.7734375 -18.9375 19.375 C-16.14987252 17.07633137 -13.77243931 14.69460468 -11.4375 11.9375 C-9.32332919 9.44239751 -7.23443496 7.23988448 -4.6875 5.1875 C-1.85430578 3.10119391 -1.85430578 3.10119391 0 0 Z " fill="#353432" transform="translate(149,143)"/>
<path d="M0 0 C21.45 0 42.9 0 65 0 C61.09654304 4.55403312 57.24136216 8.90452745 53.01049805 13.11889648 C52.16303261 13.9689904 52.16303261 13.9689904 51.29844666 14.83625793 C49.45535501 16.68370373 47.60868663 18.52752381 45.76171875 20.37109375 C44.47216939 21.66131743 43.18276845 22.95168947 41.89350891 24.24220276 C39.20463396 26.93254545 36.51397467 29.6210871 33.82202148 32.30834961 C30.36389367 35.76074612 26.91032088 39.21765911 23.45804119 42.67590237 C20.80311539 45.33442942 18.14582779 47.99058541 15.48780251 50.64601326 C14.21235471 51.92079236 12.93765378 53.19631916 11.66370201 54.47259331 C9.89237795 56.24644044 8.1179091 58.01707865 6.3425293 59.78686523 C5.81320801 60.31821075 5.28388672 60.84955627 4.73852539 61.39700317 C1.11426948 65 1.11426948 65 0 65 C0 43.55 0 22.1 0 0 Z " fill="#333332" transform="translate(38,30)"/>
<path d="M0 0 C1.134375 0.020625 2.26875 0.04125 3.4375 0.0625 C3.4375 2.0425 3.4375 4.0225 3.4375 6.0625 C1.7875 6.3925 0.1375 6.7225 -1.5625 7.0625 C-0.9025 6.0725 -0.2425 5.0825 0.4375 4.0625 C-31.2425 3.5675 -31.2425 3.5675 -63.5625 3.0625 C-63.5625 2.7325 -63.5625 2.4025 -63.5625 2.0625 C-62.45709618 2.0470388 -62.45709618 2.0470388 -61.32936096 2.03126526 C-54.39828924 1.93345357 -47.46730098 1.83096284 -40.53637791 1.72316074 C-36.97277032 1.66789973 -33.40915457 1.61447482 -29.84545898 1.56518555 C-25.75234755 1.50849468 -21.6593939 1.44392682 -17.56640625 1.37890625 C-15.63831871 1.35383751 -15.63831871 1.35383751 -13.67127991 1.32826233 C-12.49013107 1.30831711 -11.30898224 1.28837189 -10.09204102 1.26782227 C-9.04613297 1.25227798 -8.00022491 1.2367337 -6.92262268 1.22071838 C-3.59120808 0.99738634 -3.79840758 0.06663873 0 0 Z " fill="#E1BA01" transform="translate(101.5625,26.9375)"/>
<path d="M0 0 C21.45 0 42.9 0 65 0 C64.01 0.99 63.02 1.98 62 3 C61.34 2.67 60.68 2.34 60 2 C58.09018054 1.90880329 56.17712814 1.88247463 54.26513672 1.88647461 C52.46349564 1.88658791 52.46349564 1.88658791 50.62545776 1.88670349 C49.32335358 1.89186478 48.02124939 1.89702606 46.6796875 1.90234375 C45.33733167 1.90420862 43.99497516 1.9056322 42.65261841 1.90663147 C39.11804325 1.91045122 35.58350913 1.92027688 32.0489502 1.93133545 C28.44279536 1.94156122 24.8366339 1.94613159 21.23046875 1.95117188 C14.15362904 1.96189962 7.0768172 1.97896955 0 2 C0 1.34 0 0.68 0 0 Z " fill="#3E3939" transform="translate(38,30)"/>
<path d="M0 0 C1 2 1 2 1 6 C-1.75 8.3125 -1.75 8.3125 -5 10 C-6.32 9.67 -7.64 9.34 -9 9 C-6.03 6.03 -3.06 3.06 0 0 Z " fill="#DCB50B" transform="translate(49,84)"/>
<path d="M0 0 C0.99 0.33 1.98 0.66 3 1 C2.06725891 2.12894876 1.12859878 3.25300876 0.1875 4.375 C-0.33457031 5.00148438 -0.85664063 5.62796875 -1.39453125 6.2734375 C-3 8 -3 8 -6 10 C-6.66 9.34 -7.32 8.68 -8 8 C-6.625 6.5 -6.625 6.5 -5 5 C-4.34 5 -3.68 5 -3 5 C-2.690625 4.360625 -2.38125 3.72125 -2.0625 3.0625 C-1 1 -1 1 0 0 Z " fill="#E7BE09" transform="translate(129,49)"/>
<path d="M0 0 C0.66 0 1.32 0 2 0 C2.33 0.99 2.66 1.98 3 3 C0.69 5.31 -1.62 7.62 -4 10 C-4.66 8.68 -5.32 7.36 -6 6 C-4 4 -2 2 0 0 Z " fill="#E7BE0A" transform="translate(138,39)"/>
<path d="M0 0 C0.99 0.33 1.98 0.66 3 1 C1.50902342 4.7952131 -0.75700849 6.61042731 -4 9 C-4.33 8.01 -4.66 7.02 -5 6 C-3.59554165 3.7363436 -1.8032087 1.9791315 0 0 Z " fill="#403B30" transform="translate(148,91)"/>
<path d="M0 0 C0.66 1.32 1.32 2.64 2 4 C1.01 4.33 0.02 4.66 -1 5 C-1 5.66 -1 6.32 -1 7 C-2.65 7 -4.3 7 -6 7 C-4.02 4.69 -2.04 2.38 0 0 Z " fill="#EEC308" transform="translate(158,86)"/>
<path d="M0 0 C2.31 0 4.62 0 7 0 C7 1.98 7 3.96 7 6 C5.35 6.33 3.7 6.66 2 7 C2.99 5.35 3.98 3.7 5 2 C3.02 2 1.04 2 -1 2 C-0.67 1.34 -0.34 0.68 0 0 Z " fill="#ECC107" transform="translate(98,27)"/>
<path d="M0 0 C1 3 1 3 0 6 C-0.99 6 -1.98 6 -3 6 C-3 6.66 -3 7.32 -3 8 C-4.32 7.67 -5.64 7.34 -7 7 C-4.69 4.69 -2.38 2.38 0 0 Z " fill="#E1BA0C" transform="translate(47,197)"/>
<path d="M0 0 C1 3 1 3 0 6 C-0.99 6 -1.98 6 -3 6 C-3 6.66 -3 7.32 -3 8 C-4.32 7.67 -5.64 7.34 -7 7 C-4.69 4.69 -2.38 2.38 0 0 Z " fill="#E3BC0B" transform="translate(73,171)"/>
<path d="M0 0 C1 3 1 3 0 6 C-0.99 6 -1.98 6 -3 6 C-3 6.66 -3 7.32 -3 8 C-4.32 7.67 -5.64 7.34 -7 7 C-4.69 4.69 -2.38 2.38 0 0 Z " fill="#E4BC0B" transform="translate(86,158)"/>
<path d="M0 0 C0.99 0.66 1.98 1.32 3 2 C1.25 4 1.25 4 -1 6 C-2.32 6 -3.64 6 -5 6 C-3.63016497 2.83884224 -3.0109362 2.0072908 0 0 Z " fill="#403B2E" transform="translate(163,77)"/>
<path d="M0 0 C0.5534764 2.07553648 1 3.84365964 1 6 C-0.98 6.99 -0.98 6.99 -3 8 C-3 7.34 -3 6.68 -3 6 C-3.66 5.67 -4.32 5.34 -5 5 C-3.35 3.35 -1.7 1.7 0 0 Z " fill="#E0B70A" transform="translate(62,71)"/>
<path d="M0 0 C0 3.23861295 -0.6250851 5.09740189 -2 8 C-2.99 8.495 -2.99 8.495 -4 9 C-4 8.34 -4 7.68 -4 7 C-4.66 6.67 -5.32 6.34 -6 6 C-4.02 4.02 -2.04 2.04 0 0 Z " fill="#EAC00A" transform="translate(132,112)"/>
<path d="M0 0 C0 2 0 2 -1.5 3.5625 C-1.995 4.036875 -2.49 4.51125 -3 5 C-3 5.33 -3 5.66 -3 6 C-4.65 6 -6.3 6 -8 6 C-3.375 0 -3.375 0 0 0 Z " fill="#E5BE0A" transform="translate(63,184)"/>
<path d="M0 0 C0.66 1.32 1.32 2.64 2 4 C2.66 4 3.32 4 4 4 C4 4.66 4 5.32 4 6 C3.34 6 2.68 6 2 6 C1.67 6.66 1.34 7.32 1 8 C1 7.34 1 6.68 1 6 C0.34 5.67 -0.32 5.34 -1 5 C-1 4.67 -1 4.34 -1 4 C-1.66 3.67 -2.32 3.34 -3 3 C-2.01 2.01 -1.02 1.02 0 0 Z " fill="#E7BB0A" transform="translate(56,77)"/>
<path d="M0 0 C0.66 1.32 1.32 2.64 2 4 C2.66 4 3.32 4 4 4 C4 4.66 4 5.32 4 6 C3.34 6 2.68 6 2 6 C1.67 6.66 1.34 7.32 1 8 C1 7.34 1 6.68 1 6 C0.34 5.67 -0.32 5.34 -1 5 C-1 4.67 -1 4.34 -1 4 C-1.66 3.67 -2.32 3.34 -3 3 C-2.01 2.01 -1.02 1.02 0 0 Z " fill="#E8BB0A" transform="translate(69,64)"/>
<path d="M0 0 C0.66 1.32 1.32 2.64 2 4 C2.66 4 3.32 4 4 4 C4 4.66 4 5.32 4 6 C3.34 6 2.68 6 2 6 C1.67 6.66 1.34 7.32 1 8 C1 7.34 1 6.68 1 6 C0.34 5.67 -0.32 5.34 -1 5 C-1 4.67 -1 4.34 -1 4 C-1.66 3.67 -2.32 3.34 -3 3 C-2.01 2.01 -1.02 1.02 0 0 Z " fill="#E9BC0A" transform="translate(82,51)"/>
<path d="M0 0 C1.65 0 3.3 0 5 0 C3.02 2.31 1.04 4.62 -1 7 C-2 4 -2 4 -1.0625 1.8125 C-0.5365625 0.9153125 -0.5365625 0.9153125 0 0 Z " fill="#4B4130" transform="translate(202,37)"/>
<path d="M0 0 C0.99 1.32 1.98 2.64 3 4 C2.34 5.32 1.68 6.64 1 8 C-1 5 -1 5 -1 4 C-1.66 3.67 -2.32 3.34 -3 3 C-2.01 2.01 -1.02 1.02 0 0 Z " fill="#E9BC0A" transform="translate(95,38)"/>
<path d="M0 0 C0.66 0.99 1.32 1.98 2 3 C0.35 4.32 -1.3 5.64 -3 7 C-3.33 5.68 -3.66 4.36 -4 3 C-2.68 2.01 -1.36 1.02 0 0 Z " fill="#EBC208" transform="translate(45,133)"/>
<path d="M0 0 C0.66 1.32 1.32 2.64 2 4 C0.68 4.99 -0.64 5.98 -2 7 C-2.6875 5.1875 -2.6875 5.1875 -3 3 C-1.5625 1.25 -1.5625 1.25 0 0 Z " fill="#403E2C" transform="translate(187,52)"/>
<path d="M0 0 C0.66 1.32 1.32 2.64 2 4 C0.68 4.99 -0.64 5.98 -2 7 C-2.6875 5.1875 -2.6875 5.1875 -3 3 C-1.5625 1.25 -1.5625 1.25 0 0 Z " fill="#403E2C" transform="translate(174,65)"/>
<path d="M0 0 C0.99 0.33 1.98 0.66 3 1 C1.35 2.65 -0.3 4.3 -2 6 C-2.33 5.01 -2.66 4.02 -3 3 C-2.34 3 -1.68 3 -1 3 C-0.67 2.01 -0.34 1.02 0 0 Z " fill="#E6BE07" transform="translate(88,90)"/>
<path d="M0 0 C0.99 0.33 1.98 0.66 3 1 C1.35 2.65 -0.3 4.3 -2 6 C-2.66 5.34 -3.32 4.68 -4 4 C-2.68 2.68 -1.36 1.36 0 0 Z " fill="#E8BF08" transform="translate(103,75)"/>
</svg>
